<svg xmlns="http://www.w3.org/2000/svg" xmlns:v="https://svgstorm.com"
viewBox = "0 0 159 60"
width="159"
height="60">
<g fill="None" fill-opacity="0.0" stroke="#040709" stroke-opacity="1.00" stroke-width="0.3"><path d="
M 0.00 53.00 
C 15.02 60.46 33.56 56.49 51.00 57.00 C 68.44 57.51 88.42 57.29 106.00 57.00 C 123.58 56.71 143.05 59.60 159.00 54.00
L 159.00 0.00
L 0.00 0.00
L 0.00 53.00
M 10.00 30.00 
C 9.48 27.78 9.49 27.17 10.00 25.00
C 10.68 17.51 16.77 16.93 23.00 19.00
C 20.07 15.68 24.07 10.38 28.00 11.00
C 27.75 13.36 26.31 16.00 24.00 17.00
C 23.72 19.70 37.43 15.91 32.21 22.23 C 26.99 28.55 38.81 35.40 29.00 41.00
C 24.71 39.80 20.32 39.84 16.00 41.00
C 13.44 37.61 9.87 34.57 10.00 30.00
M 66.00 19.00 
C 63.09 4.43 79.58 18.75 66.00 19.00
M 94.00 12.00 
C 95.29 20.37 91.03 18.06 94.00 12.00
M 111.00 19.00 
C 108.35 20.15 107.01 15.27 109.00 14.00
C 109.46 12.75 111.76 12.08 113.00 12.00
C 112.39 14.22 114.62 19.04 111.00 19.00
M 76.00 13.00 
C 78.63 13.44 78.58 19.90 74.97 18.97 C 71.36 18.04 73.12 12.52 76.00 13.00
M 86.00 13.00 
C 86.11 15.23 85.21 18.07 83.00 19.00
C 83.24 14.81 78.22 21.02 79.00 13.00
C 80.58 15.45 84.35 15.37 86.00 13.00
M 89.00 15.00 
C 88.68 16.00 87.92 18.22 87.00 19.00
C 87.25 17.22 85.97 13.64 89.00 14.00
C 91.66 11.27 92.55 17.01 92.00 19.00
C 88.85 19.82 91.17 15.51 89.00 15.00
M 99.00 13.00 
C 101.71 13.48 101.45 19.97 97.97 18.97 C 94.49 17.97 95.78 12.43 99.00 13.00
M 106.00 19.00 
C 105.04 19.60 103.05 18.54 102.00 19.00
C 101.72 17.51 102.02 15.62 104.00 16.00
C 103.59 14.86 102.19 15.35 102.00 14.00
C 105.40 10.44 109.20 16.78 106.00 19.00
M 122.00 15.00 
C 122.02 16.00 121.98 17.00 122.00 18.00
C 120.61 17.74 121.22 15.95 121.00 15.00
C 117.00 15.55 118.88 17.51 121.00 19.00
C 114.07 20.71 118.42 9.41 122.00 15.00
M 127.00 14.00 
C 128.02 15.37 128.24 17.02 128.00 19.00
C 126.40 18.47 127.28 16.25 127.00 15.00
C 125.28 16.33 125.28 18.21 123.00 19.00
C 122.05 16.04 123.60 10.49 127.00 14.00
M 66.00 38.00 
C 63.02 34.67 58.02 34.20 54.00 37.00
C 55.77 33.01 57.69 29.13 59.00 25.00
C 63.86 26.57 64.69 33.58 66.00 38.00
M 110.00 30.00 
C 106.54 30.08 107.66 36.02 110.00 37.00
C 104.47 39.21 105.37 29.29 106.00 26.00
C 107.81 26.31 109.77 28.00 110.00 30.00
M 68.00 40.00 
C 68.00 36.00 68.00 32.00 68.00 28.00
C 71.27 28.46 78.69 27.29 77.97 33.03 C 77.26 38.76 70.46 36.89 68.00 40.00
M 80.00 40.00 
C 80.00 36.00 80.00 32.00 80.00 28.00
C 83.79 27.88 90.27 27.99 89.00 34.00 C 87.73 40.01 82.04 35.67 80.00 40.00
M 103.00 29.00 
C 95.47 30.54 104.61 31.94 103.00 37.00
C 100.78 36.39 95.96 38.62 96.00 35.00
C 100.55 37.02 102.43 33.73 97.00 33.00
C 95.58 28.96 100.01 26.44 103.00 29.00
M 119.00 28.00 
C 124.57 29.83 120.99 39.71 115.00 37.00 C 109.01 34.28 113.36 26.15 119.00 28.00
M 129.00 28.00 
C 127.02 31.07 125.99 34.79 125.00 38.00
C 122.95 33.94 122.80 26.44 129.00 28.00
M 140.00 33.00 
C 138.16 35.14 134.40 32.66 133.00 35.00
C 134.73 37.49 137.66 33.22 139.00 36.00
C 125.91 44.40 133.21 17.54 140.00 33.00 Z"/>
</g>
<g fill="None" fill-opacity="0.0" stroke="#F8F8F8" stroke-opacity="1.00" stroke-width="0.3"><path d="
M 10.00 25.00 
C 9.86 26.57 9.86 28.43 10.00 30.00
C 9.87 34.57 13.44 37.61 16.00 41.00
C 20.32 39.84 24.71 39.80 29.00 41.00
C 38.81 35.40 26.99 28.55 32.21 22.23 C 37.43 15.91 23.72 19.70 24.00 17.00
C 26.31 16.00 27.75 13.36 28.00 11.00
C 24.07 10.38 20.07 15.68 23.00 19.00
C 16.77 16.93 10.68 17.51 10.00 25.00 Z"/>
</g>
<g fill="None" fill-opacity="0.0" stroke="#6E6F70" stroke-opacity="1.00" stroke-width="0.3"><path d="
M 66.00 19.00 
C 79.58 18.75 63.09 4.43 66.00 19.00
M 67.00 18.00 
C 64.92 8.71 75.27 16.69 67.00 18.00 Z"/>
</g>
<g fill="None" fill-opacity="0.0" stroke="#777878" stroke-opacity="1.00" stroke-width="0.3"><path d="
M 94.00 12.00 
C 91.03 18.06 95.29 20.37 94.00 12.00 Z"/>
</g>
<g fill="None" fill-opacity="0.0" stroke="#4E5051" stroke-opacity="1.00" stroke-width="0.3"><path d="
M 109.00 14.00 
C 109.16 13.90 109.79 14.97 110.00 15.00
C 111.12 15.17 110.76 16.23 111.00 17.00
C 110.85 16.50 111.79 19.55 111.00 19.00
C 114.62 19.04 112.39 14.22 113.00 12.00
C 111.76 12.08 109.46 12.75 109.00 14.00 Z"/>
</g>
<g fill="None" fill-opacity="0.0" stroke="#06090B" stroke-opacity="1.00" stroke-width="0.3"><path d="
M 67.00 18.00 
C 75.27 16.69 64.92 8.71 67.00 18.00 Z"/>
</g>
<g fill="None" fill-opacity="0.0" stroke="#626465" stroke-opacity="1.00" stroke-width="0.3"><path d="
M 76.00 13.00 
C 73.12 12.52 71.36 18.04 74.97 18.97 C 78.58 19.90 78.63 13.44 76.00 13.00
M 74.00 15.00 
C 79.35 14.95 74.01 20.40 74.00 15.00 Z"/>
</g>
<g fill="None" fill-opacity="0.0" stroke="#696A6B" stroke-opacity="1.00" stroke-width="0.3"><path d="
M 86.00 13.00 
C 84.35 15.37 80.58 15.45 79.00 13.00
C 78.22 21.02 83.24 14.81 83.00 19.00
C 85.21 18.07 86.11 15.23 86.00 13.00 Z"/>
</g>
<g fill="None" fill-opacity="0.0" stroke="#484A4B" stroke-opacity="1.00" stroke-width="0.3"><path d="
M 89.00 14.00 
C 88.92 14.01 89.00 15.00 89.00 15.00
C 91.17 15.51 88.85 19.82 92.00 19.00
C 92.55 17.01 91.66 11.27 89.00 14.00 Z"/>
</g>
<g fill="None" fill-opacity="0.0" stroke="#58595A" stroke-opacity="1.00" stroke-width="0.3"><path d="
M 99.00 13.00 
C 95.78 12.43 94.49 17.97 97.97 18.97 C 101.45 19.97 101.71 13.48 99.00 13.00
M 99.00 18.00 
C 94.76 16.38 99.89 13.18 99.00 18.00 Z"/>
</g>
<g fill="None" fill-opacity="0.0" stroke="#3A3B3D" stroke-opacity="1.00" stroke-width="0.3"><path d="
M 104.00 16.00 
C 105.24 19.48 103.44 16.07 106.00 14.00
C 106.00 15.67 106.00 17.33 106.00 19.00
C 109.20 16.78 105.40 10.44 102.00 14.00
C 102.19 15.35 103.59 14.86 104.00 16.00 Z"/>
</g>
<g fill="None" fill-opacity="0.0" stroke="#5C5D5E" stroke-opacity="1.00" stroke-width="0.3"><path d="
M 121.00 15.00 
C 121.49 14.93 122.00 15.00 122.00 15.00
C 118.42 9.41 114.07 20.71 121.00 19.00
C 118.88 17.51 117.00 15.55 121.00 15.00 Z"/>
</g>
<g fill="None" fill-opacity="0.0" stroke="#48494A" stroke-opacity="1.00" stroke-width="0.3"><path d="
M 127.00 15.00 
C 126.99 14.50 127.00 14.00 127.00 14.00
C 123.60 10.49 122.05 16.04 123.00 19.00
C 125.28 18.21 125.28 16.33 127.00 15.00 Z"/>
</g>
<g fill="None" fill-opacity="0.0" stroke="#7D7D7E" stroke-opacity="1.00" stroke-width="0.3"><path d="
M 89.00 15.00 
C 89.00 15.00 88.92 14.01 89.00 14.00
C 85.97 13.64 87.25 17.22 87.00 19.00
C 87.92 18.22 88.68 16.00 89.00 15.00 Z"/>
</g>
<g fill="None" fill-opacity="0.0" stroke="#797A7B" stroke-opacity="1.00" stroke-width="0.3"><path d="
M 104.00 16.00 
C 102.02 15.62 101.72 17.51 102.00 19.00
C 103.05 18.54 105.04 19.60 106.00 19.00
C 106.00 17.33 106.00 15.67 106.00 14.00
C 103.44 16.07 105.24 19.48 104.00 16.00 Z"/>
</g>
<g fill="None" fill-opacity="0.0" stroke="#767778" stroke-opacity="1.00" stroke-width="0.3"><path d="
M 111.00 19.00 
C 111.79 19.55 110.85 16.50 111.00 17.00
C 110.46 16.30 109.51 17.72 110.00 15.00
C 109.79 14.97 109.16 13.90 109.00 14.00
C 107.01 15.27 108.35 20.15 111.00 19.00 Z"/>
</g>
<g fill="None" fill-opacity="0.0" stroke="#89898A" stroke-opacity="1.00" stroke-width="0.3"><path d="
M 127.00 15.00 
C 127.28 16.25 126.40 18.47 128.00 19.00
C 128.24 17.02 128.02 15.37 127.00 14.00
C 127.00 14.00 126.99 14.50 127.00 15.00 Z"/>
</g>
<g fill="None" fill-opacity="0.0" stroke="#05080A" stroke-opacity="1.00" stroke-width="0.3"><path d="
M 74.00 15.00 
C 74.01 20.40 79.35 14.95 74.00 15.00 Z"/>
</g>
<g fill="None" fill-opacity="0.0" stroke="#040608" stroke-opacity="1.00" stroke-width="0.3"><path d="
M 99.00 18.00 
C 99.89 13.18 94.76 16.38 99.00 18.00 Z"/>
</g>
<g fill="None" fill-opacity="0.0" stroke="#040608" stroke-opacity="1.00" stroke-width="0.3"><path d="
M 111.00 17.00 
C 110.76 16.23 111.12 15.17 110.00 15.00
C 109.51 17.72 110.46 16.30 111.00 17.00 Z"/>
</g>
<g fill="None" fill-opacity="0.0" stroke="#949494" stroke-opacity="1.00" stroke-width="0.3"><path d="
M 122.00 15.00 
C 122.00 15.00 121.49 14.93 121.00 15.00
C 121.22 15.95 120.61 17.74 122.00 18.00
C 121.98 17.00 122.02 16.00 122.00 15.00 Z"/>
</g>
<g fill="None" fill-opacity="0.0" stroke="#7C7D7E" stroke-opacity="1.00" stroke-width="0.3"><path d="
M 10.00 30.00 
C 9.86 28.43 9.86 26.57 10.00 25.00
C 9.49 27.17 9.48 27.78 10.00 30.00 Z"/>
</g>
<g fill="None" fill-opacity="0.0" stroke="#CCCDCD" stroke-opacity="1.00" stroke-width="0.3"><path d="
M 66.00 38.00 
C 64.69 33.58 63.86 26.57 59.00 25.00
C 57.69 29.13 55.77 33.01 54.00 37.00
C 58.02 34.20 63.02 34.67 66.00 38.00
M 62.00 32.00 
C 56.65 32.89 61.15 26.45 62.00 32.00 Z"/>
</g>
<g fill="None" fill-opacity="0.0" stroke="#EFEFF0" stroke-opacity="1.00" stroke-width="0.3"><path d="
M 110.00 30.00 
C 109.77 28.00 107.81 26.31 106.00 26.00
C 105.37 29.29 104.47 39.21 110.00 37.00
C 107.66 36.02 106.54 30.08 110.00 30.00 Z"/>
</g>
<g fill="None" fill-opacity="0.0" stroke="#CCCDCD" stroke-opacity="1.00" stroke-width="0.3"><path d="
M 68.00 40.00 
C 70.46 36.89 77.26 38.76 77.97 33.03 C 78.69 27.29 71.27 28.46 68.00 28.00
C 68.00 32.00 68.00 36.00 68.00 40.00
M 75.00 30.00 
C 76.94 30.99 75.22 37.12 72.30 35.64 C 69.38 34.17 71.64 28.29 75.00 30.00 Z"/>
</g>
<g fill="None" fill-opacity="0.0" stroke="#E3E4E4" stroke-opacity="1.00" stroke-width="0.3"><path d="
M 80.00 40.00 
C 82.04 35.67 87.73 40.01 89.00 34.00 C 90.27 27.99 83.79 27.88 80.00 28.00
C 80.00 32.00 80.00 36.00 80.00 40.00
M 86.00 30.00 
C 88.39 31.28 86.98 37.16 83.77 35.21 C 80.55 33.26 82.86 28.32 86.00 30.00 Z"/>
</g>
<g fill="None" fill-opacity="0.0" stroke="#D7D7D8" stroke-opacity="1.00" stroke-width="0.3"><path d="
M 103.00 29.00 
C 100.01 26.44 95.58 28.96 97.00 33.00
C 102.43 33.73 100.55 37.02 96.00 35.00
C 95.96 38.62 100.78 36.39 103.00 37.00
C 104.61 31.94 95.47 30.54 103.00 29.00 Z"/>
</g>
<g fill="None" fill-opacity="0.0" stroke="#DBDCDC" stroke-opacity="1.00" stroke-width="0.3"><path d="
M 119.00 28.00 
C 113.36 26.15 109.01 34.28 115.00 37.00 C 120.99 39.71 124.57 29.83 119.00 28.00
M 119.00 30.00 
C 121.20 31.25 118.99 37.41 115.77 35.21 C 112.55 33.01 115.69 28.12 119.00 30.00 Z"/>
</g>
<g fill="None" fill-opacity="0.0" stroke="#E3E3E4" stroke-opacity="1.00" stroke-width="0.3"><path d="
M 129.00 28.00 
C 122.80 26.44 122.95 33.94 125.00 38.00
C 125.99 34.79 127.02 31.07 129.00 28.00 Z"/>
</g>
<g fill="None" fill-opacity="0.0" stroke="#C8C9C9" stroke-opacity="1.00" stroke-width="0.3"><path d="
M 140.00 33.00 
C 133.21 17.54 125.91 44.40 139.00 36.00
C 137.66 33.22 134.73 37.49 133.00 35.00
C 134.40 32.66 138.16 35.14 140.00 33.00
M 137.00 30.00 
C 136.07 34.94 130.44 29.23 137.00 30.00 Z"/>
</g>
<g fill="None" fill-opacity="0.0" stroke="#0E1113" stroke-opacity="1.00" stroke-width="0.3"><path d="
M 62.00 32.00 
C 61.15 26.45 56.65 32.89 62.00 32.00 Z"/>
</g>
<g fill="None" fill-opacity="0.0" stroke="#141719" stroke-opacity="1.00" stroke-width="0.3"><path d="
M 75.00 30.00 
C 71.64 28.29 69.38 34.17 72.30 35.64 C 75.22 37.12 76.94 30.99 75.00 30.00 Z"/>
</g>
<g fill="None" fill-opacity="0.0" stroke="#131518" stroke-opacity="1.00" stroke-width="0.3"><path d="
M 86.00 30.00 
C 82.86 28.32 80.55 33.26 83.77 35.21 C 86.98 37.16 88.39 31.28 86.00 30.00 Z"/>
</g>
<g fill="None" fill-opacity="0.0" stroke="#17191C" stroke-opacity="1.00" stroke-width="0.3"><path d="
M 119.00 30.00 
C 115.69 28.12 112.55 33.01 115.77 35.21 C 118.99 37.41 121.20 31.25 119.00 30.00 Z"/>
</g>
<g fill="None" fill-opacity="0.0" stroke="#0F1214" stroke-opacity="1.00" stroke-width="0.3"><path d="
M 137.00 30.00 
C 130.44 29.23 136.07 34.94 137.00 30.00 Z"/>
</g>
<g fill="None" fill-opacity="0.0" stroke="#2A2123" stroke-opacity="1.00" stroke-width="0.3"><path d="
M 0.00 60.00 
L 159.00 60.00
L 159.00 54.00
C 143.05 59.60 123.58 56.71 106.00 57.00 C 88.42 57.29 68.44 57.51 51.00 57.00 C 33.56 56.49 15.02 60.46 0.00 53.00
L 0.00 60.00 Z"/>
</g>
<g fill="#040709" fill-opacity="1.00" stroke="None">
<path d="
M 0.00 53.00 
C 15.02 60.46 33.56 56.49 51.00 57.00 C 68.44 57.51 88.42 57.29 106.00 57.00 C 123.58 56.71 143.05 59.60 159.00 54.00
L 159.00 0.00
L 0.00 0.00
L 0.00 53.00
M 10.00 30.00 
C 9.48 27.78 9.49 27.17 10.00 25.00
C 10.68 17.51 16.77 16.93 23.00 19.00
C 20.07 15.68 24.07 10.38 28.00 11.00
C 27.75 13.36 26.31 16.00 24.00 17.00
C 23.72 19.70 37.43 15.91 32.21 22.23 C 26.99 28.55 38.81 35.40 29.00 41.00
C 24.71 39.80 20.32 39.84 16.00 41.00
C 13.44 37.61 9.87 34.57 10.00 30.00
M 66.00 19.00 
C 63.09 4.43 79.58 18.75 66.00 19.00
M 94.00 12.00 
C 95.29 20.37 91.03 18.06 94.00 12.00
M 111.00 19.00 
C 108.35 20.15 107.01 15.27 109.00 14.00
C 109.46 12.75 111.76 12.08 113.00 12.00
C 112.39 14.22 114.62 19.04 111.00 19.00
M 76.00 13.00 
C 78.63 13.44 78.58 19.90 74.97 18.97 C 71.36 18.04 73.12 12.52 76.00 13.00
M 86.00 13.00 
C 86.11 15.23 85.21 18.07 83.00 19.00
C 83.24 14.81 78.22 21.02 79.00 13.00
C 80.58 15.45 84.35 15.37 86.00 13.00
M 89.00 15.00 
C 88.68 16.00 87.92 18.22 87.00 19.00
C 87.25 17.22 85.97 13.64 89.00 14.00
C 91.66 11.27 92.55 17.01 92.00 19.00
C 88.85 19.82 91.17 15.51 89.00 15.00
M 99.00 13.00 
C 101.71 13.48 101.45 19.97 97.97 18.97 C 94.49 17.97 95.78 12.43 99.00 13.00
M 106.00 19.00 
C 105.04 19.60 103.05 18.54 102.00 19.00
C 101.72 17.51 102.02 15.62 104.00 16.00
C 103.59 14.86 102.19 15.35 102.00 14.00
C 105.40 10.44 109.20 16.78 106.00 19.00
M 122.00 15.00 
C 122.02 16.00 121.98 17.00 122.00 18.00
C 120.61 17.74 121.22 15.95 121.00 15.00
C 117.00 15.55 118.88 17.51 121.00 19.00
C 114.07 20.71 118.42 9.41 122.00 15.00
M 127.00 14.00 
C 128.02 15.37 128.24 17.02 128.00 19.00
C 126.40 18.47 127.28 16.25 127.00 15.00
C 125.28 16.33 125.28 18.21 123.00 19.00
C 122.05 16.04 123.60 10.49 127.00 14.00
M 66.00 38.00 
C 63.02 34.67 58.02 34.20 54.00 37.00
C 55.77 33.01 57.69 29.13 59.00 25.00
C 63.86 26.57 64.69 33.58 66.00 38.00
M 110.00 30.00 
C 106.54 30.08 107.66 36.02 110.00 37.00
C 104.47 39.21 105.37 29.29 106.00 26.00
C 107.81 26.31 109.77 28.00 110.00 30.00
M 68.00 40.00 
C 68.00 36.00 68.00 32.00 68.00 28.00
C 71.27 28.46 78.69 27.29 77.97 33.03 C 77.26 38.76 70.46 36.89 68.00 40.00
M 80.00 40.00 
C 80.00 36.00 80.00 32.00 80.00 28.00
C 83.79 27.88 90.27 27.99 89.00 34.00 C 87.73 40.01 82.04 35.67 80.00 40.00
M 103.00 29.00 
C 95.47 30.54 104.61 31.94 103.00 37.00
C 100.78 36.39 95.96 38.62 96.00 35.00
C 100.55 37.02 102.43 33.73 97.00 33.00
C 95.58 28.96 100.01 26.44 103.00 29.00
M 119.00 28.00 
C 124.57 29.83 120.99 39.71 115.00 37.00 C 109.01 34.28 113.36 26.15 119.00 28.00
M 129.00 28.00 
C 127.02 31.07 125.99 34.79 125.00 38.00
C 122.95 33.94 122.80 26.44 129.00 28.00
M 140.00 33.00 
C 138.16 35.14 134.40 32.66 133.00 35.00
C 134.73 37.49 137.66 33.22 139.00 36.00
C 125.91 44.40 133.21 17.54 140.00 33.00 Z"/>
</g>
<g fill="#F8F8F8" fill-opacity="1.00" stroke="None">
<path d="
M 10.00 25.00 
C 9.86 26.57 9.86 28.43 10.00 30.00
C 9.87 34.57 13.44 37.61 16.00 41.00
C 20.32 39.84 24.71 39.80 29.00 41.00
C 38.81 35.40 26.99 28.55 32.21 22.23 C 37.43 15.91 23.72 19.70 24.00 17.00
C 26.31 16.00 27.75 13.36 28.00 11.00
C 24.07 10.38 20.07 15.68 23.00 19.00
C 16.77 16.93 10.68 17.51 10.00 25.00 Z"/>
</g>
<g fill="#6E6F70" fill-opacity="1.00" stroke="None">
<path d="
M 66.00 19.00 
C 79.58 18.75 63.09 4.43 66.00 19.00
M 67.00 18.00 
C 64.92 8.71 75.27 16.69 67.00 18.00 Z"/>
</g>
<g fill="#777878" fill-opacity="1.00" stroke="None">
<path d="
M 94.00 12.00 
C 91.03 18.06 95.29 20.37 94.00 12.00 Z"/>
</g>
<g fill="#4E5051" fill-opacity="1.00" stroke="None">
<path d="
M 109.00 14.00 
C 109.16 13.90 109.79 14.97 110.00 15.00
C 111.12 15.17 110.76 16.23 111.00 17.00
C 110.85 16.50 111.79 19.55 111.00 19.00
C 114.62 19.04 112.39 14.22 113.00 12.00
C 111.76 12.08 109.46 12.75 109.00 14.00 Z"/>
</g>
<g fill="#06090B" fill-opacity="1.00" stroke="None">
<path d="
M 67.00 18.00 
C 75.27 16.69 64.92 8.71 67.00 18.00 Z"/>
</g>
<g fill="#626465" fill-opacity="1.00" stroke="None">
<path d="
M 76.00 13.00 
C 73.12 12.52 71.36 18.04 74.97 18.97 C 78.58 19.90 78.63 13.44 76.00 13.00
M 74.00 15.00 
C 79.35 14.95 74.01 20.40 74.00 15.00 Z"/>
</g>
<g fill="#696A6B" fill-opacity="1.00" stroke="None">
<path d="
M 86.00 13.00 
C 84.35 15.37 80.58 15.45 79.00 13.00
C 78.22 21.02 83.24 14.81 83.00 19.00
C 85.21 18.07 86.11 15.23 86.00 13.00 Z"/>
</g>
<g fill="#484A4B" fill-opacity="1.00" stroke="None">
<path d="
M 89.00 14.00 
C 88.92 14.01 89.00 15.00 89.00 15.00
C 91.17 15.51 88.85 19.82 92.00 19.00
C 92.55 17.01 91.66 11.27 89.00 14.00 Z"/>
</g>
<g fill="#58595A" fill-opacity="1.00" stroke="None">
<path d="
M 99.00 13.00 
C 95.78 12.43 94.49 17.97 97.97 18.97 C 101.45 19.97 101.71 13.48 99.00 13.00
M 99.00 18.00 
C 94.76 16.38 99.89 13.18 99.00 18.00 Z"/>
</g>
<g fill="#3A3B3D" fill-opacity="1.00" stroke="None">
<path d="
M 104.00 16.00 
C 105.24 19.48 103.44 16.07 106.00 14.00
C 106.00 15.67 106.00 17.33 106.00 19.00
C 109.20 16.78 105.40 10.44 102.00 14.00
C 102.19 15.35 103.59 14.86 104.00 16.00 Z"/>
</g>
<g fill="#5C5D5E" fill-opacity="1.00" stroke="None">
<path d="
M 121.00 15.00 
C 121.49 14.93 122.00 15.00 122.00 15.00
C 118.42 9.41 114.07 20.71 121.00 19.00
C 118.88 17.51 117.00 15.55 121.00 15.00 Z"/>
</g>
<g fill="#48494A" fill-opacity="1.00" stroke="None">
<path d="
M 127.00 15.00 
C 126.99 14.50 127.00 14.00 127.00 14.00
C 123.60 10.49 122.05 16.04 123.00 19.00
C 125.28 18.21 125.28 16.33 127.00 15.00 Z"/>
</g>
<g fill="#7D7D7E" fill-opacity="1.00" stroke="None">
<path d="
M 89.00 15.00 
C 89.00 15.00 88.92 14.01 89.00 14.00
C 85.97 13.64 87.25 17.22 87.00 19.00
C 87.92 18.22 88.68 16.00 89.00 15.00 Z"/>
</g>
<g fill="#797A7B" fill-opacity="1.00" stroke="None">
<path d="
M 104.00 16.00 
C 102.02 15.62 101.72 17.51 102.00 19.00
C 103.05 18.54 105.04 19.60 106.00 19.00
C 106.00 17.33 106.00 15.67 106.00 14.00
C 103.44 16.07 105.24 19.48 104.00 16.00 Z"/>
</g>
<g fill="#767778" fill-opacity="1.00" stroke="None">
<path d="
M 111.00 19.00 
C 111.79 19.55 110.85 16.50 111.00 17.00
C 110.46 16.30 109.51 17.72 110.00 15.00
C 109.79 14.97 109.16 13.90 109.00 14.00
C 107.01 15.27 108.35 20.15 111.00 19.00 Z"/>
</g>
<g fill="#89898A" fill-opacity="1.00" stroke="None">
<path d="
M 127.00 15.00 
C 127.28 16.25 126.40 18.47 128.00 19.00
C 128.24 17.02 128.02 15.37 127.00 14.00
C 127.00 14.00 126.99 14.50 127.00 15.00 Z"/>
</g>
<g fill="#05080A" fill-opacity="1.00" stroke="None">
<path d="
M 74.00 15.00 
C 74.01 20.40 79.35 14.95 74.00 15.00 Z"/>
</g>
<g fill="#040608" fill-opacity="1.00" stroke="None">
<path d="
M 99.00 18.00 
C 99.89 13.18 94.76 16.38 99.00 18.00 Z"/>
</g>
<g fill="#040608" fill-opacity="1.00" stroke="None">
<path d="
M 111.00 17.00 
C 110.76 16.23 111.12 15.17 110.00 15.00
C 109.51 17.72 110.46 16.30 111.00 17.00 Z"/>
</g>
<g fill="#949494" fill-opacity="1.00" stroke="None">
<path d="
M 122.00 15.00 
C 122.00 15.00 121.49 14.93 121.00 15.00
C 121.22 15.95 120.61 17.74 122.00 18.00
C 121.98 17.00 122.02 16.00 122.00 15.00 Z"/>
</g>
<g fill="#7C7D7E" fill-opacity="1.00" stroke="None">
<path d="
M 10.00 30.00 
C 9.86 28.43 9.86 26.57 10.00 25.00
C 9.49 27.17 9.48 27.78 10.00 30.00 Z"/>
</g>
<g fill="#CCCDCD" fill-opacity="1.00" stroke="None">
<path d="
M 66.00 38.00 
C 64.69 33.58 63.86 26.57 59.00 25.00
C 57.69 29.13 55.77 33.01 54.00 37.00
C 58.02 34.20 63.02 34.67 66.00 38.00
M 62.00 32.00 
C 56.65 32.89 61.15 26.45 62.00 32.00 Z"/>
</g>
<g fill="#EFEFF0" fill-opacity="1.00" stroke="None">
<path d="
M 110.00 30.00 
C 109.77 28.00 107.81 26.31 106.00 26.00
C 105.37 29.29 104.47 39.21 110.00 37.00
C 107.66 36.02 106.54 30.08 110.00 30.00 Z"/>
</g>
<g fill="#CCCDCD" fill-opacity="1.00" stroke="None">
<path d="
M 68.00 40.00 
C 70.46 36.89 77.26 38.76 77.97 33.03 C 78.69 27.29 71.27 28.46 68.00 28.00
C 68.00 32.00 68.00 36.00 68.00 40.00
M 75.00 30.00 
C 76.94 30.99 75.22 37.12 72.30 35.64 C 69.38 34.17 71.64 28.29 75.00 30.00 Z"/>
</g>
<g fill="#E3E4E4" fill-opacity="1.00" stroke="None">
<path d="
M 80.00 40.00 
C 82.04 35.67 87.73 40.01 89.00 34.00 C 90.27 27.99 83.79 27.88 80.00 28.00
C 80.00 32.00 80.00 36.00 80.00 40.00
M 86.00 30.00 
C 88.39 31.28 86.98 37.16 83.77 35.21 C 80.55 33.26 82.86 28.32 86.00 30.00 Z"/>
</g>
<g fill="#D7D7D8" fill-opacity="1.00" stroke="None">
<path d="
M 103.00 29.00 
C 100.01 26.44 95.58 28.96 97.00 33.00
C 102.43 33.73 100.55 37.02 96.00 35.00
C 95.96 38.62 100.78 36.39 103.00 37.00
C 104.61 31.94 95.47 30.54 103.00 29.00 Z"/>
</g>
<g fill="#DBDCDC" fill-opacity="1.00" stroke="None">
<path d="
M 119.00 28.00 
C 113.36 26.15 109.01 34.28 115.00 37.00 C 120.99 39.71 124.57 29.83 119.00 28.00
M 119.00 30.00 
C 121.20 31.25 118.99 37.41 115.77 35.21 C 112.55 33.01 115.69 28.12 119.00 30.00 Z"/>
</g>
<g fill="#E3E3E4" fill-opacity="1.00" stroke="None">
<path d="
M 129.00 28.00 
C 122.80 26.44 122.95 33.94 125.00 38.00
C 125.99 34.79 127.02 31.07 129.00 28.00 Z"/>
</g>
<g fill="#C8C9C9" fill-opacity="1.00" stroke="None">
<path d="
M 140.00 33.00 
C 133.21 17.54 125.91 44.40 139.00 36.00
C 137.66 33.22 134.73 37.49 133.00 35.00
C 134.40 32.66 138.16 35.14 140.00 33.00
M 137.00 30.00 
C 136.07 34.94 130.44 29.23 137.00 30.00 Z"/>
</g>
<g fill="#0E1113" fill-opacity="1.00" stroke="None">
<path d="
M 62.00 32.00 
C 61.15 26.45 56.65 32.89 62.00 32.00 Z"/>
</g>
<g fill="#141719" fill-opacity="1.00" stroke="None">
<path d="
M 75.00 30.00 
C 71.64 28.29 69.38 34.17 72.30 35.64 C 75.22 37.12 76.94 30.99 75.00 30.00 Z"/>
</g>
<g fill="#131518" fill-opacity="1.00" stroke="None">
<path d="
M 86.00 30.00 
C 82.86 28.32 80.55 33.26 83.77 35.21 C 86.98 37.16 88.39 31.28 86.00 30.00 Z"/>
</g>
<g fill="#17191C" fill-opacity="1.00" stroke="None">
<path d="
M 119.00 30.00 
C 115.69 28.12 112.55 33.01 115.77 35.21 C 118.99 37.41 121.20 31.25 119.00 30.00 Z"/>
</g>
<g fill="#0F1214" fill-opacity="1.00" stroke="None">
<path d="
M 137.00 30.00 
C 130.44 29.23 136.07 34.94 137.00 30.00 Z"/>
</g>
<g fill="#2A2123" fill-opacity="1.00" stroke="None">
<path d="
M 0.00 60.00 
L 159.00 60.00
L 159.00 54.00
C 143.05 59.60 123.58 56.71 106.00 57.00 C 88.42 57.29 68.44 57.51 51.00 57.00 C 33.56 56.49 15.02 60.46 0.00 53.00
L 0.00 60.00 Z"/>
</g>
</svg>