<svg xmlns="http://www.w3.org/2000/svg" xmlns:v="https://svgstorm.com"
viewBox = "0 0 158 63"
width="158"
height="63">
<g fill="None" fill-opacity="0.0" stroke="#040709" stroke-opacity="1.00" stroke-width="0.3"><path d="
M 0.00 54.00 
C 15.81 59.45 33.56 56.74 51.00 57.00 C 68.44 57.26 88.50 57.37 106.00 57.00 C 123.50 56.63 142.13 59.60 158.00 54.00
L 158.00 0.00
L 0.00 0.00
L 0.00 54.00
M 27.00 20.00 
C 29.83 21.56 34.70 22.70 34.00 27.00
C 31.42 27.24 29.38 29.08 27.00 30.00
C 23.75 31.89 11.10 42.19 8.00 39.00
C 8.18 38.93 8.00 38.00 8.00 38.00
C 8.00 33.85 7.54 27.98 8.00 24.00 C 8.46 20.02 6.32 13.68 9.00 11.00
C 11.10 8.90 23.99 18.34 27.00 20.00
M 70.00 18.00 
C 69.42 18.98 66.22 19.87 66.00 18.00
C 65.21 15.98 66.60 13.10 66.00 11.00
C 70.90 8.67 74.71 15.68 70.00 18.00
M 94.00 19.00 
C 92.50 17.36 92.28 12.57 94.00 11.00
C 95.50 12.64 95.72 17.43 94.00 19.00
M 113.00 11.00 
C 112.44 13.52 114.19 17.30 112.00 19.00
C 112.00 14.53 109.55 13.23 109.00 18.00
C 105.72 13.96 111.34 13.17 113.00 11.00
M 77.00 18.00 
C 72.90 22.23 72.85 11.51 75.00 13.00
C 78.01 11.69 78.36 16.68 77.00 18.00
M 82.00 13.00 
C 84.86 17.55 87.15 10.79 85.00 18.00
C 81.43 17.91 79.15 17.48 79.00 13.00
C 81.01 14.22 82.14 17.48 82.00 13.00
M 89.00 15.00 
C 88.89 15.99 89.09 17.01 89.00 18.00
C 86.18 18.75 85.99 12.28 89.00 13.00
C 91.58 11.88 92.55 16.47 92.00 18.00
C 90.79 17.70 90.67 12.72 89.00 15.00
M 100.00 18.00 
C 99.48 13.93 97.56 13.93 97.00 18.00
C 92.41 11.99 104.57 11.98 100.00 18.00
M 107.00 19.00 
C 103.88 18.97 101.83 17.99 102.00 15.00
C 104.30 10.19 108.67 15.43 107.00 19.00
M 121.00 13.00 
C 123.90 13.71 122.75 19.81 119.30 18.64 C 115.85 17.47 117.66 12.18 121.00 13.00
M 128.00 13.00 
C 128.56 22.27 125.34 9.27 124.00 19.00
C 123.65 15.85 123.54 11.70 128.00 13.00
M 95.00 37.00 
C 93.42 33.73 93.29 27.20 95.00 24.00
C 96.58 27.27 96.71 33.80 95.00 37.00
M 120.00 25.00 
C 126.96 26.26 123.33 35.24 117.00 33.00
C 116.99 34.61 117.59 37.43 115.00 37.00
C 113.87 34.52 112.68 27.24 115.00 25.00
C 116.83 23.23 118.26 24.33 120.00 25.00
M 127.00 37.00 
C 125.42 33.73 125.29 27.20 127.00 24.00
C 128.58 27.27 128.71 33.80 127.00 37.00
M 56.00 27.00 
C 47.10 22.67 44.78 39.07 55.00 34.00
C 52.51 31.32 51.10 29.46 57.00 30.00
C 58.80 38.08 48.52 39.24 46.03 32.97 C 43.53 26.71 51.50 21.74 56.00 27.00
M 67.00 28.00 
C 71.19 30.21 66.75 40.10 61.33 36.67 C 55.91 33.24 61.19 24.94 67.00 28.00
M 78.00 28.00 
C 83.00 30.44 78.27 39.53 72.78 36.22 C 67.28 32.91 71.94 25.04 78.00 28.00
M 91.00 28.00 
C 93.27 34.31 88.66 44.31 82.00 38.00
C 84.02 36.68 89.22 39.78 89.00 35.00
C 85.34 37.24 81.17 35.99 82.00 31.00 C 82.83 26.01 87.81 29.33 91.00 28.00
M 100.00 34.00 
C 101.69 36.29 104.91 33.57 106.00 35.00
C 103.70 41.57 92.49 32.22 99.75 28.75 C 107.02 25.29 109.05 35.55 100.00 34.00
M 139.00 37.00 
C 137.29 37.76 126.13 37.20 130.78 32.78 C 135.44 28.35 135.47 32.62 131.00 28.00
C 137.08 26.07 140.21 31.66 139.00 37.00
M 144.00 33.00 
C 147.30 33.50 145.35 27.39 149.00 28.00
C 147.78 32.29 146.98 40.08 141.00 40.00
C 145.52 37.38 142.01 32.46 140.00 28.00
C 143.27 27.01 143.39 30.86 144.00 33.00 Z"/>
</g>
<g fill="None" fill-opacity="0.0" stroke="#8AAF76" stroke-opacity="1.00" stroke-width="0.3"><path d="
M 9.00 11.00 
C 12.66 16.17 18.41 19.86 22.00 25.00
C 22.16 24.77 23.00 25.00 23.00 25.00
C 24.23 23.25 25.96 21.81 27.00 20.00
C 23.99 18.34 11.10 8.90 9.00 11.00 Z"/>
</g>
<g fill="None" fill-opacity="0.0" stroke="#94C3E3" stroke-opacity="1.00" stroke-width="0.3"><path d="
M 8.00 38.00 
C 13.19 34.37 16.86 28.59 22.00 25.00
C 18.41 19.86 12.66 16.17 9.00 11.00
C 6.32 13.68 8.46 20.02 8.00 24.00 C 7.54 27.98 8.00 33.85 8.00 38.00 Z"/>
</g>
<g fill="None" fill-opacity="0.0" stroke="#838485" stroke-opacity="1.00" stroke-width="0.3"><path d="
M 66.00 18.00 
C 65.99 17.88 67.02 17.33 67.00 17.00
C 66.91 15.34 67.07 13.66 67.00 12.00
C 70.26 11.01 72.14 14.73 70.00 17.00
C 69.77 17.35 70.00 18.00 70.00 18.00
C 74.71 15.68 70.90 8.67 66.00 11.00
C 66.60 13.10 65.21 15.98 66.00 18.00 Z"/>
</g>
<g fill="None" fill-opacity="0.0" stroke="#4B4C4D" stroke-opacity="1.00" stroke-width="0.3"><path d="
M 94.00 19.00 
C 95.72 17.43 95.50 12.64 94.00 11.00
C 92.28 12.57 92.50 17.36 94.00 19.00 Z"/>
</g>
<g fill="None" fill-opacity="0.0" stroke="#6C6D6E" stroke-opacity="1.00" stroke-width="0.3"><path d="
M 113.00 11.00 
C 111.34 13.17 105.72 13.96 109.00 18.00
C 109.55 13.23 112.00 14.53 112.00 19.00
C 114.19 17.30 112.44 13.52 113.00 11.00 Z"/>
</g>
<g fill="None" fill-opacity="0.0" stroke="#080B0D" stroke-opacity="1.00" stroke-width="0.3"><path d="
M 67.00 17.00 
C 67.20 16.90 69.87 16.86 70.00 17.00
C 72.14 14.73 70.26 11.01 67.00 12.00
C 67.07 13.66 66.91 15.34 67.00 17.00 Z"/>
</g>
<g fill="None" fill-opacity="0.0" stroke="#4A4B4D" stroke-opacity="1.00" stroke-width="0.3"><path d="
M 77.00 18.00 
C 77.25 17.76 77.00 17.00 77.00 17.00
C 75.01 16.34 75.83 16.89 75.00 15.00
C 75.13 15.30 74.30 12.51 75.00 13.00
C 72.85 11.51 72.90 22.23 77.00 18.00 Z"/>
</g>
<g fill="None" fill-opacity="0.0" stroke="#727374" stroke-opacity="1.00" stroke-width="0.3"><path d="
M 75.00 15.00 
C 75.08 15.09 76.82 14.42 77.00 17.00
C 77.00 17.00 77.25 17.76 77.00 18.00
C 78.36 16.68 78.01 11.69 75.00 13.00
C 74.30 12.51 75.13 15.30 75.00 15.00 Z"/>
</g>
<g fill="None" fill-opacity="0.0" stroke="#656667" stroke-opacity="1.00" stroke-width="0.3"><path d="
M 82.00 13.00 
C 82.14 17.48 81.01 14.22 79.00 13.00
C 79.15 17.48 81.43 17.91 85.00 18.00
C 87.15 10.79 84.86 17.55 82.00 13.00 Z"/>
</g>
<g fill="None" fill-opacity="0.0" stroke="#4A4B4C" stroke-opacity="1.00" stroke-width="0.3"><path d="
M 89.00 15.00 
C 88.82 14.78 88.65 12.77 89.00 13.00
C 85.99 12.28 86.18 18.75 89.00 18.00
C 89.09 17.01 88.89 15.99 89.00 15.00 Z"/>
</g>
<g fill="None" fill-opacity="0.0" stroke="#7B7B7C" stroke-opacity="1.00" stroke-width="0.3"><path d="
M 89.00 15.00 
C 90.67 12.72 90.79 17.70 92.00 18.00
C 92.55 16.47 91.58 11.88 89.00 13.00
C 88.65 12.77 88.82 14.78 89.00 15.00 Z"/>
</g>
<g fill="None" fill-opacity="0.0" stroke="#676868" stroke-opacity="1.00" stroke-width="0.3"><path d="
M 100.00 18.00 
C 104.57 11.98 92.41 11.99 97.00 18.00
C 97.56 13.93 99.48 13.93 100.00 18.00 Z"/>
</g>
<g fill="None" fill-opacity="0.0" stroke="#555658" stroke-opacity="1.00" stroke-width="0.3"><path d="
M 107.00 19.00 
C 108.67 15.43 104.30 10.19 102.00 15.00
C 101.83 17.99 103.88 18.97 107.00 19.00 Z"/>
</g>
<g fill="None" fill-opacity="0.0" stroke="#555657" stroke-opacity="1.00" stroke-width="0.3"><path d="
M 121.00 13.00 
C 117.66 12.18 115.85 17.47 119.30 18.64 C 122.75 19.81 123.90 13.71 121.00 13.00
M 121.00 15.00 
C 121.73 15.73 120.29 17.67 119.29 16.63 C 118.30 15.60 120.44 14.44 121.00 15.00 Z"/>
</g>
<g fill="None" fill-opacity="0.0" stroke="#7C7D7D" stroke-opacity="1.00" stroke-width="0.3"><path d="
M 128.00 13.00 
C 123.54 11.70 123.65 15.85 124.00 19.00
C 125.34 9.27 128.56 22.27 128.00 13.00 Z"/>
</g>
<g fill="None" fill-opacity="0.0" stroke="#040608" stroke-opacity="1.00" stroke-width="0.3"><path d="
M 75.00 15.00 
C 75.83 16.89 75.01 16.34 77.00 17.00
C 76.82 14.42 75.08 15.09 75.00 15.00 Z"/>
</g>
<g fill="None" fill-opacity="0.0" stroke="#040608" stroke-opacity="1.00" stroke-width="0.3"><path d="
M 121.00 15.00 
C 120.44 14.44 118.30 15.60 119.29 16.63 C 120.29 17.67 121.73 15.73 121.00 15.00 Z"/>
</g>
<g fill="None" fill-opacity="0.0" stroke="#535455" stroke-opacity="1.00" stroke-width="0.3"><path d="
M 66.00 18.00 
C 66.22 19.87 69.42 18.98 70.00 18.00
C 70.00 18.00 69.77 17.35 70.00 17.00
C 69.87 16.86 67.20 16.90 67.00 17.00
C 67.02 17.33 65.99 17.88 66.00 18.00 Z"/>
</g>
<g fill="None" fill-opacity="0.0" stroke="#D5BE5C" stroke-opacity="1.00" stroke-width="0.3"><path d="
M 23.00 25.00 
C 24.23 26.75 25.96 28.19 27.00 30.00
C 29.38 29.08 31.42 27.24 34.00 27.00
C 34.70 22.70 29.83 21.56 27.00 20.00
C 25.96 21.81 24.23 23.25 23.00 25.00 Z"/>
</g>
<g fill="None" fill-opacity="0.0" stroke="#EEEEEF" stroke-opacity="1.00" stroke-width="0.3"><path d="
M 95.00 37.00 
C 96.71 33.80 96.58 27.27 95.00 24.00
C 93.29 27.20 93.42 33.73 95.00 37.00 Z"/>
</g>
<g fill="None" fill-opacity="0.0" stroke="#424345" stroke-opacity="1.00" stroke-width="0.3"><path d="
M 115.00 25.00 
C 116.63 25.22 118.39 24.71 120.00 25.00
C 118.26 24.33 116.83 23.23 115.00 25.00 Z"/>
</g>
<g fill="None" fill-opacity="0.0" stroke="#F8F8F8" stroke-opacity="1.00" stroke-width="0.3"><path d="
M 127.00 37.00 
C 128.71 33.80 128.58 27.27 127.00 24.00
C 125.29 27.20 125.42 33.73 127.00 37.00 Z"/>
</g>
<g fill="None" fill-opacity="0.0" stroke="#879CB5" stroke-opacity="1.00" stroke-width="0.3"><path d="
M 8.00 38.00 
C 8.00 38.00 8.18 38.93 8.00 39.00
C 12.65 37.06 19.19 29.01 22.00 25.00
C 16.86 28.59 13.19 34.37 8.00 38.00 Z"/>
</g>
<g fill="None" fill-opacity="0.0" stroke="#AE5151" stroke-opacity="1.00" stroke-width="0.3"><path d="
M 8.00 39.00 
C 11.10 42.19 23.75 31.89 27.00 30.00
C 25.96 28.19 24.23 26.75 23.00 25.00
C 23.00 25.00 22.16 24.77 22.00 25.00
C 19.19 29.01 12.65 37.06 8.00 39.00 Z"/>
</g>
<g fill="None" fill-opacity="0.0" stroke="#DADADA" stroke-opacity="1.00" stroke-width="0.3"><path d="
M 56.00 27.00 
C 51.50 21.74 43.53 26.71 46.03 32.97 C 48.52 39.24 58.80 38.08 57.00 30.00
C 51.10 29.46 52.51 31.32 55.00 34.00
C 44.78 39.07 47.10 22.67 56.00 27.00 Z"/>
</g>
<g fill="None" fill-opacity="0.0" stroke="#78797A" stroke-opacity="1.00" stroke-width="0.3"><path d="
M 115.00 37.00 
C 115.00 33.00 115.00 29.00 115.00 25.00
C 112.68 27.24 113.87 34.52 115.00 37.00 Z"/>
</g>
<g fill="None" fill-opacity="0.0" stroke="#E0E0E1" stroke-opacity="1.00" stroke-width="0.3"><path d="
M 115.00 37.00 
C 117.59 37.43 116.99 34.61 117.00 33.00
C 123.33 35.24 126.96 26.26 120.00 25.00
C 118.39 24.71 116.63 25.22 115.00 25.00
C 115.00 29.00 115.00 33.00 115.00 37.00
M 121.00 27.00 
C 123.47 28.03 120.45 32.80 117.99 30.99 C 115.53 29.18 117.86 25.69 121.00 27.00 Z"/>
</g>
<g fill="None" fill-opacity="0.0" stroke="#0D1012" stroke-opacity="1.00" stroke-width="0.3"><path d="
M 121.00 27.00 
C 117.86 25.69 115.53 29.18 117.99 30.99 C 120.45 32.80 123.47 28.03 121.00 27.00 Z"/>
</g>
<g fill="None" fill-opacity="0.0" stroke="#DCDDDD" stroke-opacity="1.00" stroke-width="0.3"><path d="
M 67.00 28.00 
C 61.19 24.94 55.91 33.24 61.33 36.67 C 66.75 40.10 71.19 30.21 67.00 28.00
M 66.00 30.00 
C 68.18 32.18 64.62 36.98 61.78 34.22 C 58.94 31.46 64.35 28.35 66.00 30.00 Z"/>
</g>
<g fill="None" fill-opacity="0.0" stroke="#D8D8D8" stroke-opacity="1.00" stroke-width="0.3"><path d="
M 78.00 28.00 
C 71.94 25.04 67.28 32.91 72.78 36.22 C 78.27 39.53 83.00 30.44 78.00 28.00
M 77.00 30.00 
C 80.05 31.72 76.22 37.07 73.33 34.67 C 70.43 32.26 73.94 28.27 77.00 30.00 Z"/>
</g>
<g fill="None" fill-opacity="0.0" stroke="#E0E0E1" stroke-opacity="1.00" stroke-width="0.3"><path d="
M 91.00 28.00 
C 87.81 29.33 82.83 26.01 82.00 31.00 C 81.17 35.99 85.34 37.24 89.00 35.00
C 89.22 39.78 84.02 36.68 82.00 38.00
C 88.66 44.31 93.27 34.31 91.00 28.00
M 89.00 30.00 
C 90.56 31.56 86.52 36.17 84.33 33.67 C 82.14 31.17 87.15 28.15 89.00 30.00 Z"/>
</g>
<g fill="None" fill-opacity="0.0" stroke="#DADBDB" stroke-opacity="1.00" stroke-width="0.3"><path d="
M 100.00 34.00 
C 109.05 35.55 107.02 25.29 99.75 28.75 C 92.49 32.22 103.70 41.57 106.00 35.00
C 104.91 33.57 101.69 36.29 100.00 34.00
M 105.00 32.00 
C 97.41 34.23 102.54 25.96 105.00 32.00 Z"/>
</g>
<g fill="None" fill-opacity="0.0" stroke="#CBCBCC" stroke-opacity="1.00" stroke-width="0.3"><path d="
M 139.00 37.00 
C 140.21 31.66 137.08 26.07 131.00 28.00
C 135.47 32.62 135.44 28.35 130.78 32.78 C 126.13 37.20 137.29 37.76 139.00 37.00
M 135.00 35.00 
C 136.29 37.34 129.74 33.99 133.00 34.00
C 133.10 31.49 138.02 34.13 135.00 35.00 Z"/>
</g>
<g fill="None" fill-opacity="0.0" stroke="#DDDDDD" stroke-opacity="1.00" stroke-width="0.3"><path d="
M 144.00 33.00 
C 143.39 30.86 143.27 27.01 140.00 28.00
C 142.01 32.46 145.52 37.38 141.00 40.00
C 146.98 40.08 147.78 32.29 149.00 28.00
C 145.35 27.39 147.30 33.50 144.00 33.00 Z"/>
</g>
<g fill="None" fill-opacity="0.0" stroke="#353739" stroke-opacity="1.00" stroke-width="0.3"><path d="
M 105.00 32.00 
C 102.54 25.96 97.41 34.23 105.00 32.00 Z"/>
</g>
<g fill="None" fill-opacity="0.0" stroke="#090C0F" stroke-opacity="1.00" stroke-width="0.3"><path d="
M 66.00 30.00 
C 64.35 28.35 58.94 31.46 61.78 34.22 C 64.62 36.98 68.18 32.18 66.00 30.00 Z"/>
</g>
<g fill="None" fill-opacity="0.0" stroke="#141719" stroke-opacity="1.00" stroke-width="0.3"><path d="
M 77.00 30.00 
C 73.94 28.27 70.43 32.26 73.33 34.67 C 76.22 37.07 80.05 31.72 77.00 30.00 Z"/>
</g>
<g fill="None" fill-opacity="0.0" stroke="#101315" stroke-opacity="1.00" stroke-width="0.3"><path d="
M 89.00 30.00 
C 87.15 28.15 82.14 31.17 84.33 33.67 C 86.52 36.17 90.56 31.56 89.00 30.00 Z"/>
</g>
<g fill="None" fill-opacity="0.0" stroke="#07090B" stroke-opacity="1.00" stroke-width="0.3"><path d="
M 133.00 34.00 
C 133.32 34.00 133.97 35.30 135.00 35.00
C 138.02 34.13 133.10 31.49 133.00 34.00 Z"/>
</g>
<g fill="None" fill-opacity="0.0" stroke="#797B7C" stroke-opacity="1.00" stroke-width="0.3"><path d="
M 135.00 35.00 
C 133.97 35.30 133.32 34.00 133.00 34.00
C 129.74 33.99 136.29 37.34 135.00 35.00 Z"/>
</g>
<g fill="None" fill-opacity="0.0" stroke="#2A2123" stroke-opacity="1.00" stroke-width="0.3"><path d="
M 0.00 63.00 
L 158.00 63.00
L 158.00 54.00
C 142.13 59.60 123.50 56.63 106.00 57.00 C 88.50 57.37 68.44 57.26 51.00 57.00 C 33.56 56.74 15.81 59.45 0.00 54.00
L 0.00 63.00 Z"/>
</g>
<g fill="#040709" fill-opacity="1.00" stroke="None">
<path d="
M 0.00 54.00 
C 15.81 59.45 33.56 56.74 51.00 57.00 C 68.44 57.26 88.50 57.37 106.00 57.00 C 123.50 56.63 142.13 59.60 158.00 54.00
L 158.00 0.00
L 0.00 0.00
L 0.00 54.00
M 27.00 20.00 
C 29.83 21.56 34.70 22.70 34.00 27.00
C 31.42 27.24 29.38 29.08 27.00 30.00
C 23.75 31.89 11.10 42.19 8.00 39.00
C 8.18 38.93 8.00 38.00 8.00 38.00
C 8.00 33.85 7.54 27.98 8.00 24.00 C 8.46 20.02 6.32 13.68 9.00 11.00
C 11.10 8.90 23.99 18.34 27.00 20.00
M 70.00 18.00 
C 69.42 18.98 66.22 19.87 66.00 18.00
C 65.21 15.98 66.60 13.10 66.00 11.00
C 70.90 8.67 74.71 15.68 70.00 18.00
M 94.00 19.00 
C 92.50 17.36 92.28 12.57 94.00 11.00
C 95.50 12.64 95.72 17.43 94.00 19.00
M 113.00 11.00 
C 112.44 13.52 114.19 17.30 112.00 19.00
C 112.00 14.53 109.55 13.23 109.00 18.00
C 105.72 13.96 111.34 13.17 113.00 11.00
M 77.00 18.00 
C 72.90 22.23 72.85 11.51 75.00 13.00
C 78.01 11.69 78.36 16.68 77.00 18.00
M 82.00 13.00 
C 84.86 17.55 87.15 10.79 85.00 18.00
C 81.43 17.91 79.15 17.48 79.00 13.00
C 81.01 14.22 82.14 17.48 82.00 13.00
M 89.00 15.00 
C 88.89 15.99 89.09 17.01 89.00 18.00
C 86.18 18.75 85.99 12.28 89.00 13.00
C 91.58 11.88 92.55 16.47 92.00 18.00
C 90.79 17.70 90.67 12.72 89.00 15.00
M 100.00 18.00 
C 99.48 13.93 97.56 13.93 97.00 18.00
C 92.41 11.99 104.57 11.98 100.00 18.00
M 107.00 19.00 
C 103.88 18.97 101.83 17.99 102.00 15.00
C 104.30 10.19 108.67 15.43 107.00 19.00
M 121.00 13.00 
C 123.90 13.71 122.75 19.81 119.30 18.64 C 115.85 17.47 117.66 12.18 121.00 13.00
M 128.00 13.00 
C 128.56 22.27 125.34 9.27 124.00 19.00
C 123.65 15.85 123.54 11.70 128.00 13.00
M 95.00 37.00 
C 93.42 33.73 93.29 27.20 95.00 24.00
C 96.58 27.27 96.71 33.80 95.00 37.00
M 120.00 25.00 
C 126.96 26.26 123.33 35.24 117.00 33.00
C 116.99 34.61 117.59 37.43 115.00 37.00
C 113.87 34.52 112.68 27.24 115.00 25.00
C 116.83 23.23 118.26 24.33 120.00 25.00
M 127.00 37.00 
C 125.42 33.73 125.29 27.20 127.00 24.00
C 128.58 27.27 128.71 33.80 127.00 37.00
M 56.00 27.00 
C 47.10 22.67 44.78 39.07 55.00 34.00
C 52.51 31.32 51.10 29.46 57.00 30.00
C 58.80 38.08 48.52 39.24 46.03 32.97 C 43.53 26.71 51.50 21.74 56.00 27.00
M 67.00 28.00 
C 71.19 30.21 66.75 40.10 61.33 36.67 C 55.91 33.24 61.19 24.94 67.00 28.00
M 78.00 28.00 
C 83.00 30.44 78.27 39.53 72.78 36.22 C 67.28 32.91 71.94 25.04 78.00 28.00
M 91.00 28.00 
C 93.27 34.31 88.66 44.31 82.00 38.00
C 84.02 36.68 89.22 39.78 89.00 35.00
C 85.34 37.24 81.17 35.99 82.00 31.00 C 82.83 26.01 87.81 29.33 91.00 28.00
M 100.00 34.00 
C 101.69 36.29 104.91 33.57 106.00 35.00
C 103.70 41.57 92.49 32.22 99.75 28.75 C 107.02 25.29 109.05 35.55 100.00 34.00
M 139.00 37.00 
C 137.29 37.76 126.13 37.20 130.78 32.78 C 135.44 28.35 135.47 32.62 131.00 28.00
C 137.08 26.07 140.21 31.66 139.00 37.00
M 144.00 33.00 
C 147.30 33.50 145.35 27.39 149.00 28.00
C 147.78 32.29 146.98 40.08 141.00 40.00
C 145.52 37.38 142.01 32.46 140.00 28.00
C 143.27 27.01 143.39 30.86 144.00 33.00 Z"/>
</g>
<g fill="#8AAF76" fill-opacity="1.00" stroke="None">
<path d="
M 9.00 11.00 
C 12.66 16.17 18.41 19.86 22.00 25.00
C 22.16 24.77 23.00 25.00 23.00 25.00
C 24.23 23.25 25.96 21.81 27.00 20.00
C 23.99 18.34 11.10 8.90 9.00 11.00 Z"/>
</g>
<g fill="#94C3E3" fill-opacity="1.00" stroke="None">
<path d="
M 8.00 38.00 
C 13.19 34.37 16.86 28.59 22.00 25.00
C 18.41 19.86 12.66 16.17 9.00 11.00
C 6.32 13.68 8.46 20.02 8.00 24.00 C 7.54 27.98 8.00 33.85 8.00 38.00 Z"/>
</g>
<g fill="#838485" fill-opacity="1.00" stroke="None">
<path d="
M 66.00 18.00 
C 65.99 17.88 67.02 17.33 67.00 17.00
C 66.91 15.34 67.07 13.66 67.00 12.00
C 70.26 11.01 72.14 14.73 70.00 17.00
C 69.77 17.35 70.00 18.00 70.00 18.00
C 74.71 15.68 70.90 8.67 66.00 11.00
C 66.60 13.10 65.21 15.98 66.00 18.00 Z"/>
</g>
<g fill="#4B4C4D" fill-opacity="1.00" stroke="None">
<path d="
M 94.00 19.00 
C 95.72 17.43 95.50 12.64 94.00 11.00
C 92.28 12.57 92.50 17.36 94.00 19.00 Z"/>
</g>
<g fill="#6C6D6E" fill-opacity="1.00" stroke="None">
<path d="
M 113.00 11.00 
C 111.34 13.17 105.72 13.96 109.00 18.00
C 109.55 13.23 112.00 14.53 112.00 19.00
C 114.19 17.30 112.44 13.52 113.00 11.00 Z"/>
</g>
<g fill="#080B0D" fill-opacity="1.00" stroke="None">
<path d="
M 67.00 17.00 
C 67.20 16.90 69.87 16.86 70.00 17.00
C 72.14 14.73 70.26 11.01 67.00 12.00
C 67.07 13.66 66.91 15.34 67.00 17.00 Z"/>
</g>
<g fill="#4A4B4D" fill-opacity="1.00" stroke="None">
<path d="
M 77.00 18.00 
C 77.25 17.76 77.00 17.00 77.00 17.00
C 75.01 16.34 75.83 16.89 75.00 15.00
C 75.13 15.30 74.30 12.51 75.00 13.00
C 72.85 11.51 72.90 22.23 77.00 18.00 Z"/>
</g>
<g fill="#727374" fill-opacity="1.00" stroke="None">
<path d="
M 75.00 15.00 
C 75.08 15.09 76.82 14.42 77.00 17.00
C 77.00 17.00 77.25 17.76 77.00 18.00
C 78.36 16.68 78.01 11.69 75.00 13.00
C 74.30 12.51 75.13 15.30 75.00 15.00 Z"/>
</g>
<g fill="#656667" fill-opacity="1.00" stroke="None">
<path d="
M 82.00 13.00 
C 82.14 17.48 81.01 14.22 79.00 13.00
C 79.15 17.48 81.43 17.91 85.00 18.00
C 87.15 10.79 84.86 17.55 82.00 13.00 Z"/>
</g>
<g fill="#4A4B4C" fill-opacity="1.00" stroke="None">
<path d="
M 89.00 15.00 
C 88.82 14.78 88.65 12.77 89.00 13.00
C 85.99 12.28 86.18 18.75 89.00 18.00
C 89.09 17.01 88.89 15.99 89.00 15.00 Z"/>
</g>
<g fill="#7B7B7C" fill-opacity="1.00" stroke="None">
<path d="
M 89.00 15.00 
C 90.67 12.72 90.79 17.70 92.00 18.00
C 92.55 16.47 91.58 11.88 89.00 13.00
C 88.65 12.77 88.82 14.78 89.00 15.00 Z"/>
</g>
<g fill="#676868" fill-opacity="1.00" stroke="None">
<path d="
M 100.00 18.00 
C 104.57 11.98 92.41 11.99 97.00 18.00
C 97.56 13.93 99.48 13.93 100.00 18.00 Z"/>
</g>
<g fill="#555658" fill-opacity="1.00" stroke="None">
<path d="
M 107.00 19.00 
C 108.67 15.43 104.30 10.19 102.00 15.00
C 101.83 17.99 103.88 18.97 107.00 19.00 Z"/>
</g>
<g fill="#555657" fill-opacity="1.00" stroke="None">
<path d="
M 121.00 13.00 
C 117.66 12.18 115.85 17.47 119.30 18.64 C 122.75 19.81 123.90 13.71 121.00 13.00
M 121.00 15.00 
C 121.73 15.73 120.29 17.67 119.29 16.63 C 118.30 15.60 120.44 14.44 121.00 15.00 Z"/>
</g>
<g fill="#7C7D7D" fill-opacity="1.00" stroke="None">
<path d="
M 128.00 13.00 
C 123.54 11.70 123.65 15.85 124.00 19.00
C 125.34 9.27 128.56 22.27 128.00 13.00 Z"/>
</g>
<g fill="#040608" fill-opacity="1.00" stroke="None">
<path d="
M 75.00 15.00 
C 75.83 16.89 75.01 16.34 77.00 17.00
C 76.82 14.42 75.08 15.09 75.00 15.00 Z"/>
</g>
<g fill="#040608" fill-opacity="1.00" stroke="None">
<path d="
M 121.00 15.00 
C 120.44 14.44 118.30 15.60 119.29 16.63 C 120.29 17.67 121.73 15.73 121.00 15.00 Z"/>
</g>
<g fill="#535455" fill-opacity="1.00" stroke="None">
<path d="
M 66.00 18.00 
C 66.22 19.87 69.42 18.98 70.00 18.00
C 70.00 18.00 69.77 17.35 70.00 17.00
C 69.87 16.86 67.20 16.90 67.00 17.00
C 67.02 17.33 65.99 17.88 66.00 18.00 Z"/>
</g>
<g fill="#D5BE5C" fill-opacity="1.00" stroke="None">
<path d="
M 23.00 25.00 
C 24.23 26.75 25.96 28.19 27.00 30.00
C 29.38 29.08 31.42 27.24 34.00 27.00
C 34.70 22.70 29.83 21.56 27.00 20.00
C 25.96 21.81 24.23 23.25 23.00 25.00 Z"/>
</g>
<g fill="#EEEEEF" fill-opacity="1.00" stroke="None">
<path d="
M 95.00 37.00 
C 96.71 33.80 96.58 27.27 95.00 24.00
C 93.29 27.20 93.42 33.73 95.00 37.00 Z"/>
</g>
<g fill="#424345" fill-opacity="1.00" stroke="None">
<path d="
M 115.00 25.00 
C 116.63 25.22 118.39 24.71 120.00 25.00
C 118.26 24.33 116.83 23.23 115.00 25.00 Z"/>
</g>
<g fill="#F8F8F8" fill-opacity="1.00" stroke="None">
<path d="
M 127.00 37.00 
C 128.71 33.80 128.58 27.27 127.00 24.00
C 125.29 27.20 125.42 33.73 127.00 37.00 Z"/>
</g>
<g fill="#879CB5" fill-opacity="1.00" stroke="None">
<path d="
M 8.00 38.00 
C 8.00 38.00 8.18 38.93 8.00 39.00
C 12.65 37.06 19.19 29.01 22.00 25.00
C 16.86 28.59 13.19 34.37 8.00 38.00 Z"/>
</g>
<g fill="#AE5151" fill-opacity="1.00" stroke="None">
<path d="
M 8.00 39.00 
C 11.10 42.19 23.75 31.89 27.00 30.00
C 25.96 28.19 24.23 26.75 23.00 25.00
C 23.00 25.00 22.16 24.77 22.00 25.00
C 19.19 29.01 12.65 37.06 8.00 39.00 Z"/>
</g>
<g fill="#DADADA" fill-opacity="1.00" stroke="None">
<path d="
M 56.00 27.00 
C 51.50 21.74 43.53 26.71 46.03 32.97 C 48.52 39.24 58.80 38.08 57.00 30.00
C 51.10 29.46 52.51 31.32 55.00 34.00
C 44.78 39.07 47.10 22.67 56.00 27.00 Z"/>
</g>
<g fill="#78797A" fill-opacity="1.00" stroke="None">
<path d="
M 115.00 37.00 
C 115.00 33.00 115.00 29.00 115.00 25.00
C 112.68 27.24 113.87 34.52 115.00 37.00 Z"/>
</g>
<g fill="#E0E0E1" fill-opacity="1.00" stroke="None">
<path d="
M 115.00 37.00 
C 117.59 37.43 116.99 34.61 117.00 33.00
C 123.33 35.24 126.96 26.26 120.00 25.00
C 118.39 24.71 116.63 25.22 115.00 25.00
C 115.00 29.00 115.00 33.00 115.00 37.00
M 121.00 27.00 
C 123.47 28.03 120.45 32.80 117.99 30.99 C 115.53 29.18 117.86 25.69 121.00 27.00 Z"/>
</g>
<g fill="#0D1012" fill-opacity="1.00" stroke="None">
<path d="
M 121.00 27.00 
C 117.86 25.69 115.53 29.18 117.99 30.99 C 120.45 32.80 123.47 28.03 121.00 27.00 Z"/>
</g>
<g fill="#DCDDDD" fill-opacity="1.00" stroke="None">
<path d="
M 67.00 28.00 
C 61.19 24.94 55.91 33.24 61.33 36.67 C 66.75 40.10 71.19 30.21 67.00 28.00
M 66.00 30.00 
C 68.18 32.18 64.62 36.98 61.78 34.22 C 58.94 31.46 64.35 28.35 66.00 30.00 Z"/>
</g>
<g fill="#D8D8D8" fill-opacity="1.00" stroke="None">
<path d="
M 78.00 28.00 
C 71.94 25.04 67.28 32.91 72.78 36.22 C 78.27 39.53 83.00 30.44 78.00 28.00
M 77.00 30.00 
C 80.05 31.72 76.22 37.07 73.33 34.67 C 70.43 32.26 73.94 28.27 77.00 30.00 Z"/>
</g>
<g fill="#E0E0E1" fill-opacity="1.00" stroke="None">
<path d="
M 91.00 28.00 
C 87.81 29.33 82.83 26.01 82.00 31.00 C 81.17 35.99 85.34 37.24 89.00 35.00
C 89.22 39.78 84.02 36.68 82.00 38.00
C 88.66 44.31 93.27 34.31 91.00 28.00
M 89.00 30.00 
C 90.56 31.56 86.52 36.17 84.33 33.67 C 82.14 31.17 87.15 28.15 89.00 30.00 Z"/>
</g>
<g fill="#DADBDB" fill-opacity="1.00" stroke="None">
<path d="
M 100.00 34.00 
C 109.05 35.55 107.02 25.29 99.75 28.75 C 92.49 32.22 103.70 41.57 106.00 35.00
C 104.91 33.57 101.69 36.29 100.00 34.00
M 105.00 32.00 
C 97.41 34.23 102.54 25.96 105.00 32.00 Z"/>
</g>
<g fill="#CBCBCC" fill-opacity="1.00" stroke="None">
<path d="
M 139.00 37.00 
C 140.21 31.66 137.08 26.07 131.00 28.00
C 135.47 32.62 135.44 28.35 130.78 32.78 C 126.13 37.20 137.29 37.76 139.00 37.00
M 135.00 35.00 
C 136.29 37.34 129.74 33.99 133.00 34.00
C 133.10 31.49 138.02 34.13 135.00 35.00 Z"/>
</g>
<g fill="#DDDDDD" fill-opacity="1.00" stroke="None">
<path d="
M 144.00 33.00 
C 143.39 30.86 143.27 27.01 140.00 28.00
C 142.01 32.46 145.52 37.38 141.00 40.00
C 146.98 40.08 147.78 32.29 149.00 28.00
C 145.35 27.39 147.30 33.50 144.00 33.00 Z"/>
</g>
<g fill="#353739" fill-opacity="1.00" stroke="None">
<path d="
M 105.00 32.00 
C 102.54 25.96 97.41 34.23 105.00 32.00 Z"/>
</g>
<g fill="#090C0F" fill-opacity="1.00" stroke="None">
<path d="
M 66.00 30.00 
C 64.35 28.35 58.94 31.46 61.78 34.22 C 64.62 36.98 68.18 32.18 66.00 30.00 Z"/>
</g>
<g fill="#141719" fill-opacity="1.00" stroke="None">
<path d="
M 77.00 30.00 
C 73.94 28.27 70.43 32.26 73.33 34.67 C 76.22 37.07 80.05 31.72 77.00 30.00 Z"/>
</g>
<g fill="#101315" fill-opacity="1.00" stroke="None">
<path d="
M 89.00 30.00 
C 87.15 28.15 82.14 31.17 84.33 33.67 C 86.52 36.17 90.56 31.56 89.00 30.00 Z"/>
</g>
<g fill="#07090B" fill-opacity="1.00" stroke="None">
<path d="
M 133.00 34.00 
C 133.32 34.00 133.97 35.30 135.00 35.00
C 138.02 34.13 133.10 31.49 133.00 34.00 Z"/>
</g>
<g fill="#797B7C" fill-opacity="1.00" stroke="None">
<path d="
M 135.00 35.00 
C 133.97 35.30 133.32 34.00 133.00 34.00
C 129.74 33.99 136.29 37.34 135.00 35.00 Z"/>
</g>
<g fill="#2A2123" fill-opacity="1.00" stroke="None">
<path d="
M 0.00 63.00 
L 158.00 63.00
L 158.00 54.00
C 142.13 59.60 123.50 56.63 106.00 57.00 C 88.50 57.37 68.44 57.26 51.00 57.00 C 33.56 56.74 15.81 59.45 0.00 54.00
L 0.00 63.00 Z"/>
</g>
</svg>